<mxfile host="app.diagrams.net" agent="Mozilla/5.0 (Windows NT 10.0; Win64; x64) AppleWebKit/537.36 (KHTML, like Gecko) Chrome/132.0.0.0 Safari/537.36" version="26.0.16">
  <diagram name="페이지-1" id="5DbmXwBFUulkQbeJIC_3">
    <mxGraphModel dx="1434" dy="772" grid="1" gridSize="10" guides="1" tooltips="1" connect="1" arrows="1" fold="1" page="1" pageScale="1" pageWidth="827" pageHeight="1169" math="0" shadow="0">
      <root>
        <mxCell id="0" />
        <mxCell id="1" parent="0" />
        <mxCell id="x_E1Z6D5X2jzCuvDRocE-1" value="n1" style="image;aspect=fixed;perimeter=ellipsePerimeter;html=1;align=center;shadow=0;dashed=0;spacingTop=3;image=img/lib/active_directory/database.svg;" vertex="1" parent="1">
          <mxGeometry x="366" y="120" width="94.59" height="70" as="geometry" />
        </mxCell>
        <mxCell id="x_E1Z6D5X2jzCuvDRocE-2" value="n2" style="image;aspect=fixed;perimeter=ellipsePerimeter;html=1;align=center;shadow=0;dashed=0;spacingTop=3;image=img/lib/active_directory/database.svg;" vertex="1" parent="1">
          <mxGeometry x="249.99999999999997" y="300" width="94.59" height="70" as="geometry" />
        </mxCell>
        <mxCell id="x_E1Z6D5X2jzCuvDRocE-3" value="n3" style="image;aspect=fixed;perimeter=ellipsePerimeter;html=1;align=center;shadow=0;dashed=0;spacingTop=3;image=img/lib/active_directory/database.svg;" vertex="1" parent="1">
          <mxGeometry x="490" y="300" width="94.59" height="70" as="geometry" />
        </mxCell>
        <mxCell id="x_E1Z6D5X2jzCuvDRocE-4" value="" style="endArrow=none;html=1;rounded=0;entryX=0.25;entryY=1;entryDx=0;entryDy=0;exitX=1;exitY=0;exitDx=0;exitDy=0;" edge="1" parent="1" source="x_E1Z6D5X2jzCuvDRocE-2" target="x_E1Z6D5X2jzCuvDRocE-1">
          <mxGeometry width="50" height="50" relative="1" as="geometry">
            <mxPoint x="390" y="420" as="sourcePoint" />
            <mxPoint x="440" y="370" as="targetPoint" />
          </mxGeometry>
        </mxCell>
        <mxCell id="x_E1Z6D5X2jzCuvDRocE-5" value="" style="endArrow=none;html=1;rounded=0;entryX=0.75;entryY=1;entryDx=0;entryDy=0;exitX=0;exitY=0;exitDx=0;exitDy=0;" edge="1" parent="1" source="x_E1Z6D5X2jzCuvDRocE-3" target="x_E1Z6D5X2jzCuvDRocE-1">
          <mxGeometry width="50" height="50" relative="1" as="geometry">
            <mxPoint x="291" y="320" as="sourcePoint" />
            <mxPoint x="403" y="196" as="targetPoint" />
          </mxGeometry>
        </mxCell>
        <mxCell id="x_E1Z6D5X2jzCuvDRocE-6" value="" style="endArrow=none;html=1;rounded=0;entryX=1;entryY=0.5;entryDx=0;entryDy=0;exitX=0;exitY=0.5;exitDx=0;exitDy=0;" edge="1" parent="1" source="x_E1Z6D5X2jzCuvDRocE-3" target="x_E1Z6D5X2jzCuvDRocE-2">
          <mxGeometry width="50" height="50" relative="1" as="geometry">
            <mxPoint x="554" y="320" as="sourcePoint" />
            <mxPoint x="444" y="196" as="targetPoint" />
          </mxGeometry>
        </mxCell>
      </root>
    </mxGraphModel>
  </diagram>
</mxfile>
